<svg xmlns="http://www.w3.org/2000/svg" viewBox="0 0 96 96">
  <defs>
    <path id="a" d="M0 0h96v96H0z"/>
  </defs>
  <g fill="none" fill-rule="evenodd">
    <path fill="#FF4A1C" d="M14 24h68a2 2 0 0 1 2 2v48a2 2 0 0 1-2 2H14a2 2 0 0 1-2-2V26a2 2 0 0 1 2-2Z"/>
    <path fill="#9B0000" d="M12 72a2 2 0 0 0 2 2h68a2 2 0 0 0 2-2v2a2 2 0 0 1-2 2H14a2 2 0 0 1-2-2ZM11 22h73a2 2 0 0 1 2 2v15a1 1 0 0 1-1 1H19a9 9 0 0 1-9-9v-8a1 1 0 0 1 1-1Z"/>
    <path fill="#FF4A1C" d="M84 22a2 2 0 0 1 2 2v13a1 1 0 0 1-1 1H18a8 8 0 0 1-8-8v-7a1 1 0 0 1 1-1h31.252a8.003 8.003 0 0 0 15.496 0H84Z"/>
    <path fill="#FFF" fill-rule="nonzero" d="M61.23 26.402c-1.641 1.927-3.214 4.316-3.23 6.101-.006.672.208 1.259.723 1.703.74.64 1.556.865 2.368.867 1.186.001 2.364-.477 3.287-.846 1.553-.622 18.724-8.078 18.724-8.078.166-.083.135-.187-.072-.135-.084.02-18.694 5.064-18.694 5.064-.352.1-.717.152-1.083.155-1.43.009-2.703-.785-2.693-2.458.004-.655.205-1.444.67-2.373ZM60 50v20H16V50h44Zm-1 1H17v18h42V51Z"/>
    <path fill="#FFF" d="M16 50h8v20h-8zM26 52h30v2H26zM26 64h20v1H26zM26 66h10v2H26zM50 67.002h6v1h-6zM36 58h6v1h-6z"/>
    <path fill="#000" d="M18 52h4v1h-4zM18 54h4v1h-4zM18 56h4v1h-4zM18 60h4v1h-4zM18 62h4v1h-4zM18 64h4v1h-4zM18 66h4v1h-4z"/>
    <path fill="#FFF" d="M46 58h6v1h-6zM36 60h6v1h-6zM46 60h6v1h-6z"/>
    <path fill="#FFF" fill-rule="nonzero" d="M28.56 61.664V56h-1.072c-.048.165-.11.305-.184.42a.827.827 0 0 1-.288.272 1.322 1.322 0 0 1-.424.144 3.44 3.44 0 0 1-.592.044v.928h1.072v3.856h1.488Zm3.288.088c.33 0 .617-.04.86-.12a1.19 1.19 0 0 0 .6-.444c.157-.216.275-.51.352-.88.077-.37.116-.844.116-1.42 0-.57-.039-1.043-.116-1.416-.077-.373-.195-.67-.352-.888a1.23 1.23 0 0 0-.6-.456 2.596 2.596 0 0 0-.86-.128c-.33 0-.617.043-.86.128a1.23 1.23 0 0 0-.6.456c-.157.219-.275.515-.352.888-.077.373-.116.845-.116 1.416 0 .576.039 1.05.116 1.42.077.37.195.664.352.88.157.216.357.364.6.444.243.08.53.12.86.12Zm0-.904a.35.35 0 0 1-.336-.212c-.07-.141-.104-.412-.104-.812v-1.872c0-.4.035-.67.104-.812a.35.35 0 0 1 .336-.212.35.35 0 0 1 .336.212c.07.141.104.412.104.812v1.872c0 .4-.035.67-.104.812a.35.35 0 0 1-.336.212Z"/>
  </g>
</svg>
